<svg id="Capa_1" data-name="Capa 1" xmlns="http://www.w3.org/2000/svg" viewBox="0 0 47 60"><title>file</title><path d="M42.5,22h-25a1,1,0,0,0,0,2h25a1,1,0,0,0,0-2Z" transform="translate(-6.5)"/><path d="M17.5,16h10a1,1,0,0,0,0-2h-10a1,1,0,0,0,0,2Z" transform="translate(-6.5)"/><path d="M42.5,30h-25a1,1,0,0,0,0,2h25a1,1,0,0,0,0-2Z" transform="translate(-6.5)"/><path d="M42.5,38h-25a1,1,0,0,0,0,2h25a1,1,0,0,0,0-2Z" transform="translate(-6.5)"/><path d="M42.5,46h-25a1,1,0,0,0,0,2h25a1,1,0,0,0,0-2Z" transform="translate(-6.5)"/><path d="M38.91,0H6.5V60h47V14.59Zm.59,3.41L50.09,14H39.5ZM8.5,58V2h29V16h14V58Z" transform="translate(-6.5)"/></svg>